<svg xmlns="http://www.w3.org/2000/svg" version="1.1" xmlns:xlink="http://www.w3.org/1999/xlink" xmlns:svgjs="http://svgjs.dev/svgjs" width="1500" height="1500" viewBox="0 0 1500 1500"><rect width="1500" height="1500" fill="#ffffff"></rect><g transform="matrix(0.6666666666666666,0,0,0.6666666666666666,250.88393442622947,244.40971659919023)"><svg viewBox="0 0 244 247" data-background-color="#ffffff" preserveAspectRatio="xMidYMid meet" height="1518" width="1500" xmlns="http://www.w3.org/2000/svg" xmlns:xlink="http://www.w3.org/1999/xlink"><g id="tight-bounds" transform="matrix(1,0,0,1,-0.21567999999999188,-0.09999999999999432)"><svg viewBox="0 0 244.43135999999998 247.2" height="247.2" width="244.43135999999998"><g><svg></svg></g><g><svg viewBox="0 0 244.43135999999998 247.2" height="247.2" width="244.43135999999998"><g transform="matrix(1,0,0,1,0,99.47295809007053)"><svg viewBox="0 0 244.43135999999998 48.25408381985892" height="48.25408381985892" width="244.43135999999998"><g><svg viewBox="0 0 244.43135999999998 48.25408381985892" height="48.25408381985892" width="244.43135999999998"><g><svg viewBox="0 0 244.43135999999998 48.25408381985892" height="48.25408381985892" width="244.43135999999998"><g><svg viewBox="0 0 244.43135999999998 48.25408381985892" height="48.25408381985892" width="244.43135999999998"><g id="textblocktransform"><svg viewBox="0 0 244.43135999999998 48.25408381985892" height="48.25408381985892" width="244.43135999999998" id="textblock"><g><svg viewBox="0 0 244.43135999999998 48.25408381985892" height="48.25408381985892" width="244.43135999999998"><g transform="matrix(1,0,0,1,0,0)"><svg width="244.43135999999998" viewBox="2.49 -38.99 269.95 53.300000000000004" height="48.25408381985892" data-palette-color="#556970"><path d="M14.65-25.39L14.65-25.39Q20.26-25.39 23.46-21.95 26.66-18.51 26.66-12.35L26.66-12.35Q26.66-8.79 25.02-5.71 23.39-2.64 20.58-0.82 17.77 1 14.5 1L14.5 1Q8.86 1 5.68-2.4 2.49-5.81 2.49-12.06L2.49-12.06Q2.49-15.77 4.13-18.84 5.76-21.9 8.56-23.65 11.35-25.39 14.65-25.39ZM14.16-23.71L14.16-23.71Q12.23-23.71 10.82-23.14 9.4-22.58 8.54-21.63 7.69-20.68 7.18-19.21 6.67-17.75 6.48-16.21 6.3-14.67 6.3-12.65L6.3-12.65Q6.3-9.42 7.07-7.02 7.84-4.61 9.13-3.28 10.42-1.95 11.89-1.33 13.35-0.71 14.99-0.71L14.99-0.71Q16.89-0.71 18.32-1.31 19.75-1.9 20.61-2.87 21.46-3.83 21.97-5.31 22.49-6.79 22.67-8.3 22.85-9.81 22.85-11.74L22.85-11.74Q22.85-14.45 22.34-16.58 21.83-18.7 20.98-20.02 20.14-21.34 18.98-22.19 17.82-23.05 16.65-23.38 15.48-23.71 14.16-23.71ZM34.79-2.44L34.79-18.09Q34.79-19.73 34.63-20.83 34.47-21.92 34.07-22.58 33.66-23.24 32.96-23.51 32.25-23.78 31.46-23.78 30.66-23.78 30.49-23.75L30.49-23.75 30.39-24.19Q34.37-25.39 37.79-25.39L37.79-25.39Q38.3-24.1 38.3-22.61L38.3-22.61 38.3-21.9Q39.72-22.85 40.92-23.56 42.11-24.27 43.27-24.76 44.43-25.24 45.65-25.49 46.87-25.73 48.34-25.73L48.34-25.73Q49.66-25.73 50.96-25.39 52.27-25.05 53.31-24.17 54.34-23.29 54.99-21.78 55.64-20.26 55.64-17.94L55.64-17.94 55.64-2.76Q55.64-2.17 55.92-1.78 56.2-1.39 56.65-1.12 57.1-0.85 57.69-0.67 58.27-0.49 58.91-0.29L58.91-0.29 58.69 0.29Q57.32 0 55.05 0L55.05 0Q53.66 0 51.8 0.39L51.8 0.39 51.66 0.15Q52.15-0.56 52.15-2.44L52.15-2.44 52.15-17.04Q52.15-19.09 51.76-20.4 51.36-21.7 50.69-22.45 50.02-23.19 49.13-23.49 48.24-23.78 47.24-23.78L47.24-23.78Q46.02-23.78 44.96-23.56 43.89-23.34 42.83-22.89 41.77-22.44 40.67-21.77 39.57-21.09 38.3-20.19L38.3-20.19 38.3-3.34Q38.3-2.56 38.43-2.09 38.55-1.61 38.94-1.29 39.33-0.98 40.04-0.73 40.74-0.49 41.89-0.2L41.89-0.2 41.7 0.39Q40.28 0.2 39.29 0.1 38.3 0 37.69 0L37.69 0Q36.3 0 34.45 0.39L34.45 0.39 34.3 0.15Q34.79-0.56 34.79-2.44L34.79-2.44ZM70.31-36.21L70.31-4.39Q70.31-2.47 71.21-1.54 72.11-0.61 74.41-0.2L74.41-0.2 74.21 0.39Q71.41 0 69.88 0 68.35 0 66.45 0.39L66.45 0.39 66.3 0.15Q66.79-0.56 66.79-2.44L66.79-2.44 66.79-31.69Q66.79-35.16 65.97-36.34 65.16-37.52 62.5-37.35L62.5-37.35 62.4-37.79Q66.43-38.99 69.79-38.99L69.79-38.99Q70.31-37.72 70.31-36.21L70.31-36.21ZM81.78-2.44L81.78-18.09Q81.78-21.56 80.96-22.74 80.14-23.93 77.48-23.75L77.48-23.75 77.39-24.19Q81.41-25.39 84.78-25.39L84.78-25.39Q85.3-24.12 85.3-22.61L85.3-22.61 85.3-4.39Q85.3-2.47 86.2-1.54 87.1-0.61 89.4-0.2L89.4-0.2 89.2 0.39Q86.39 0 84.87 0 83.34 0 81.44 0.39L81.44 0.39 81.29 0.15Q81.78-0.56 81.78-2.44L81.78-2.44ZM79.29-34.45L79.29-34.45Q81.61-35.79 84.54-36.69L84.54-36.69Q84.54-34.67 85.2-32.69L85.2-32.69 84.88-32.25Q82.56-32.1 80.05-30.96L80.05-30.96Q79.44-32.64 79.29-34.45ZM96.28-2.44L96.28-18.09Q96.28-19.73 96.12-20.83 95.96-21.92 95.56-22.58 95.16-23.24 94.45-23.51 93.74-23.78 92.95-23.78 92.15-23.78 91.98-23.75L91.98-23.75 91.88-24.19Q95.86-25.39 99.28-25.39L99.28-25.39Q99.79-24.1 99.79-22.61L99.79-22.61 99.79-21.9Q101.21-22.85 102.41-23.56 103.6-24.27 104.76-24.76 105.92-25.24 107.14-25.49 108.36-25.73 109.83-25.73L109.83-25.73Q111.15-25.73 112.45-25.39 113.76-25.05 114.8-24.17 115.83-23.29 116.48-21.78 117.13-20.26 117.13-17.94L117.13-17.94 117.13-2.76Q117.13-2.17 117.41-1.78 117.69-1.39 118.14-1.12 118.59-0.85 119.18-0.67 119.77-0.49 120.4-0.29L120.4-0.29 120.18 0.29Q118.81 0 116.54 0L116.54 0Q115.15 0 113.3 0.39L113.3 0.39 113.15 0.15Q113.64-0.56 113.64-2.44L113.64-2.44 113.64-17.04Q113.64-19.09 113.25-20.4 112.86-21.7 112.18-22.45 111.51-23.19 110.62-23.49 109.73-23.78 108.73-23.78L108.73-23.78Q107.51-23.78 106.45-23.56 105.39-23.34 104.32-22.89 103.26-22.44 102.16-21.77 101.06-21.09 99.79-20.19L99.79-20.19 99.79-3.34Q99.79-2.56 99.92-2.09 100.04-1.61 100.43-1.29 100.82-0.98 101.53-0.73 102.24-0.49 103.38-0.2L103.38-0.2 103.19 0.39Q101.77 0.2 100.78 0.1 99.79 0 99.18 0L99.18 0Q97.79 0 95.94 0.39L95.94 0.39 95.79 0.15Q96.28-0.56 96.28-2.44L96.28-2.44ZM125.13-11.89L125.13-11.89Q125.13-14.48 125.99-16.91 126.84-19.34 128.43-21.23 130.02-23.12 132.28-24.26 134.53-25.39 137.34-25.39L137.34-25.39Q139.1-25.39 140.66-24.79 142.22-24.19 143.38-22.94 144.54-21.68 145.21-19.71 145.89-17.75 145.89-15.04L145.89-15.04 144.93-14.16 128.99-14.16Q128.94-13.75 128.94-13.35 128.94-12.96 128.94-12.57L128.94-12.57Q128.94-9.91 129.57-7.74 130.19-5.57 131.25-4.02 132.31-2.47 133.75-1.61 135.19-0.76 136.8-0.76L136.8-0.76Q137.83-0.76 138.89-0.92 139.95-1.07 140.97-1.42 141.98-1.76 142.93-2.29 143.88-2.83 144.69-3.59L144.69-3.59 145.69-2.54Q143.76-0.63 141.49 0.18 139.22 1 136.24 1L136.24 1Q133.9 1 131.86 0.1 129.82-0.81 128.33-2.49 126.84-4.17 125.99-6.56 125.13-8.94 125.13-11.89ZM136.8-23.71L136.8-23.71Q133.02-23.71 131.26-21.74 129.5-19.78 129.14-16.09L129.14-16.09 142.74-16.09Q142.54-20.09 140.94-21.9 139.34-23.71 136.8-23.71ZM180.7-5.69L180.7-5.69Q180.7-3.93 179.99-2.66 179.28-1.39 178.1-0.57 176.91 0.24 175.34 0.62 173.76 1 172.03 1L172.03 1Q167.83 1 164.14-0.76L164.14-0.76Q164.61-2.37 165.07-3.75 165.53-5.13 166.02-6.3L166.02-6.3 166.73-6.05Q166.51-4.98 166.51-3.99 166.51-3 166.58-2.2L166.58-2.2Q167.34-1.81 168-1.53 168.66-1.25 169.32-1.06 169.98-0.88 170.73-0.79 171.49-0.71 172.49-0.71L172.49-0.71Q173.98-0.71 174.96-0.9 175.93-1.1 176.48-1.57 177.03-2.05 177.25-2.84 177.47-3.64 177.47-4.81L177.47-4.81Q177.47-5.71 177.17-6.51 176.86-7.3 176.12-8.08 175.37-8.86 174.14-9.7 172.91-10.55 171.08-11.55L171.08-11.55Q168.12-13.31 166.61-15.05 165.09-16.8 165.09-18.8L165.09-18.8Q165.09-20.39 165.75-21.62 166.41-22.85 167.55-23.69 168.68-24.54 170.2-24.96 171.71-25.39 173.4-25.39L173.4-25.39Q174.25-25.39 175.19-25.27 176.13-25.15 177.01-24.91 177.89-24.68 178.66-24.35 179.43-24.02 179.99-23.61L179.99-23.61Q179.21-20.41 178.08-17.99L178.08-17.99 177.38-18.26Q177.42-18.97 177.45-20.01 177.47-21.04 177.47-22.46L177.47-22.46Q175.89-23.71 173.08-23.71L173.08-23.71Q171.69-23.71 170.72-23.54 169.76-23.36 169.17-22.95 168.59-22.53 168.33-21.81 168.07-21.09 168.07-20L168.07-20Q168.07-19.19 168.29-18.49 168.51-17.8 169.07-17.13 169.64-16.46 170.6-15.76 171.56-15.06 173.08-14.26L173.08-14.26Q175.45-12.96 176.92-11.99 178.4-11.01 179.24-10.07 180.09-9.13 180.39-8.11 180.7-7.08 180.7-5.69ZM206.43-2.44L206.43-17.04Q206.43-19.09 206.03-20.4 205.64-21.7 204.97-22.45 204.3-23.19 203.41-23.49 202.52-23.78 201.52-23.78L201.52-23.78Q200.3-23.78 199.24-23.56 198.17-23.34 197.11-22.89 196.05-22.44 194.95-21.77 193.85-21.09 192.58-20.19L192.58-20.19 192.58-3.34Q192.58-2.56 192.7-2.09 192.83-1.61 193.22-1.29 193.61-0.98 194.32-0.73 195.02-0.49 196.17-0.2L196.17-0.2 195.98 0.39Q194.56 0.2 193.57 0.1 192.58 0 191.58 0 190.58 0 188.73 0.39L188.73 0.39 188.58 0.15Q189.07-0.56 189.07-2.44L189.07-2.44 189.07-31.69Q189.07-33.33 188.91-34.42 188.75-35.52 188.35-36.18 187.94-36.84 187.24-37.11 186.53-37.38 185.73-37.38 184.94-37.38 184.77-37.35L184.77-37.35 184.67-37.79Q188.65-38.99 192.07-38.99L192.07-38.99Q192.58-37.7 192.58-36.21L192.58-36.21 192.58-21.9Q194.27-23.05 195.65-23.79 197.03-24.54 198.23-24.98 199.44-25.42 200.53-25.59 201.62-25.76 202.74-25.76L202.74-25.76Q204.28-25.76 205.56-25.35 206.84-24.95 207.77-24.04 208.7-23.12 209.26-21.63 209.82-20.14 209.92-17.94L209.92-17.94 209.92-2.76Q209.92-2.17 210.2-1.78 210.48-1.39 210.93-1.12 211.38-0.85 211.97-0.67 212.55-0.49 213.19-0.29L213.19-0.29 212.97 0.29Q211.6 0 209.77 0 207.94 0 206.08 0.39L206.08 0.39 205.94 0.15Q206.43-0.56 206.43-2.44L206.43-2.44ZM230.08-25.39L230.08-25.39Q235.7-25.39 238.89-21.95 242.09-18.51 242.09-12.35L242.09-12.35Q242.09-8.79 240.46-5.71 238.82-2.64 236.01-0.82 233.21 1 229.93 1L229.93 1Q224.29 1 221.11-2.4 217.92-5.81 217.92-12.06L217.92-12.06Q217.92-15.77 219.56-18.84 221.19-21.9 223.99-23.65 226.78-25.39 230.08-25.39ZM229.59-23.71L229.59-23.71Q227.66-23.71 226.25-23.14 224.83-22.58 223.98-21.63 223.12-20.68 222.61-19.21 222.1-17.75 221.91-16.21 221.73-14.67 221.73-12.65L221.73-12.65Q221.73-9.42 222.5-7.02 223.27-4.61 224.56-3.28 225.86-1.95 227.32-1.33 228.79-0.71 230.42-0.71L230.42-0.71Q232.33-0.71 233.75-1.31 235.18-1.9 236.04-2.87 236.89-3.83 237.4-5.31 237.92-6.79 238.1-8.3 238.28-9.81 238.28-11.74L238.28-11.74Q238.28-14.45 237.77-16.58 237.26-18.7 236.42-20.02 235.57-21.34 234.41-22.19 233.25-23.05 232.08-23.38 230.91-23.71 229.59-23.71ZM253.73 0.49L253.73 9.5Q253.73 11.45 254.64 12.37 255.54 13.28 257.84 13.7L257.84 13.7 257.64 14.31Q254.93 13.89 253.12 13.89L253.12 13.89Q251.73 13.89 249.88 14.31L249.88 14.31 249.73 14.04Q250.22 13.33 250.22 11.45L250.22 11.45 250.22-18.09Q250.22-21.56 249.4-22.74 248.58-23.93 245.92-23.75L245.92-23.75 245.82-24.19Q249.85-25.39 253.22-25.39L253.22-25.39Q253.73-24.12 253.73-22.61L253.73-22.61 253.73-21.19Q255.88-23.39 258.06-24.39 260.23-25.39 262.84-25.39L262.84-25.39Q265.04-25.39 266.88-24.38 268.73-23.36 269.92-21.7 271.12-20.04 271.78-17.96 272.44-15.87 272.44-13.65L272.44-13.65Q272.44-7.06 268.96-3.03 265.48 1 258.98 1L258.98 1Q256.03 1 253.73 0.49L253.73 0.49ZM253.73-19.24L253.73-19.24 253.73-2.29Q254.88-1.66 256.84-1.26 258.79-0.85 260.74-0.85L260.74-0.85Q262.65-0.85 264.05-1.43 265.45-2 266.31-2.97 267.16-3.93 267.69-5.44 268.21-6.96 268.4-8.58 268.58-10.21 268.58-12.35L268.58-12.35Q268.58-17.92 266.7-20.79 264.82-23.66 261.72-23.66L261.72-23.66Q259.79-23.66 257.7-22.52 255.61-21.39 253.73-19.24Z" opacity="1" transform="matrix(1,0,0,1,0,0)" fill="#000000" class="wordmark-text-0" data-fill-palette-color="primary" id="text-0"></path></svg></g></svg></g></svg></g></svg></g><g></g></svg></g></svg></g></svg></g><path d="M0 93.473L0 1 244.431 1 244.431 93.473 240.08 93.473 240.08 5.352 4.352 5.352 4.352 93.473 0 93.473M0 153.727L0 246.2 244.431 246.2 244.431 153.727 240.08 153.727 240.08 241.848 4.352 241.848 4.352 153.727 0 153.727" fill="#000000" stroke="transparent" data-fill-palette-color="tertiary"></path></svg></g><defs></defs></svg><rect width="244.43135999999998" height="247.2" fill="none" stroke="none" visibility="hidden"></rect></g></svg></g></svg>